<?xml version="1.0" standalone="no"?>
<!DOCTYPE svg PUBLIC "-//W3C//DTD SVG 20010904//EN"
 "http://www.w3.org/TR/2001/REC-SVG-20010904/DTD/svg10.dtd">
<svg version="1.0" xmlns="http://www.w3.org/2000/svg"
 width="167.000000pt" height="180.000000pt" viewBox="0 0 167.000000 180.000000"
 preserveAspectRatio="xMidYMid meet">

<g transform="translate(0.000000,180.000000) scale(0.100000,-0.100000)"
fill="#ad1fff" stroke="none">
<path d="M294 1649 c-18 -20 -19 -44 -19 -536 0 -498 1 -515 19 -529 17 -12
109 -14 557 -14 l538 0 15 22 c14 20 16 86 16 524 0 492 0 502 -21 528 l-20
26 -533 0 c-529 0 -533 0 -552 -21z m140 -85 c19 -18 19 -20 6 -45 -22 -39
-87 -12 -72 31 11 32 42 39 66 14z m880 0 c19 -18 19 -20 6 -45 -6 -11 -21
-19 -35 -19 -20 0 -45 24 -45 44 0 10 32 36 45 36 7 0 21 -7 29 -16z m-766
-448 c-3 -277 -5 -321 -18 -321 -13 0 -15 43 -18 315 -1 173 0 320 2 327 3 7
12 10 21 7 13 -6 15 -45 13 -328z m630 -2 c-3 -276 -5 -319 -18 -319 -13 0
-15 43 -18 319 -2 248 1 321 10 327 7 5 16 5 21 0 4 -4 6 -151 5 -327z m-251
217 c50 -23 75 -65 75 -127 0 -87 -64 -143 -171 -149 l-56 -4 1 -80 1 -81 -34
0 -33 0 0 224 c0 257 -11 233 105 235 49 0 83 -5 112 -18z m-493 -610 c23 -25
6 -61 -29 -61 -33 0 -49 30 -29 58 19 27 36 28 58 3z m880 0 c23 -25 6 -61
-29 -61 -33 0 -49 30 -29 58 19 27 36 28 58 3z"/>
<path d="M788 1293 c-16 -4 -18 -17 -18 -94 l0 -89 54 0 c43 0 61 5 81 23 33
29 44 87 21 121 -22 34 -88 52 -138 39z"/>
<path d="M660 465 l0 -55 205 0 205 0 0 55 0 55 -205 0 -205 0 0 -55z"/>
<path d="M730 220 l0 -150 135 0 135 0 0 150 0 150 -135 0 -135 0 0 -150z"/>
</g>
</svg>
